<svg id="Layer_1" data-name="Layer 1" xmlns="http://www.w3.org/2000/svg" viewBox="0 0 122.88 122.88"><defs><style>.cls-1{fill-rule:evenodd;}.cls-2{fill:#fff;}</style></defs><title>five-number-round</title><path class="cls-1" d="M61.44,0A61.46,61.46,0,1,1,18,18,61.21,61.21,0,0,1,61.44,0Z"/><path class="cls-2" d="M61.3,84.6A22.42,22.42,0,0,1,52,82.74a15.69,15.69,0,0,1-6.4-5.15,12.88,12.88,0,0,1-2.38-7.54h12a4.8,4.8,0,0,0,1.84,3.78,7.16,7.16,0,0,0,7.58.58,5.83,5.83,0,0,0,2.28-2.31,7.1,7.1,0,0,0,.8-3.48,7,7,0,0,0-.8-3.48,5.89,5.89,0,0,0-2.28-2.31A6.75,6.75,0,0,0,61.3,62a7.2,7.2,0,0,0-3.62.95,5.85,5.85,0,0,0-2.45,2.62L44.35,63.45l1.78-25.17h30.7v9.91H56.31l-.9,10.08h.27a8.3,8.3,0,0,1,3.71-3.45,13.07,13.07,0,0,1,6.11-1.37,14.09,14.09,0,0,1,7.28,1.9,13.85,13.85,0,0,1,5.07,5.23,15.51,15.51,0,0,1,1.84,7.69A15.28,15.28,0,0,1,71,82.5a21.15,21.15,0,0,1-9.71,2.1Z"/></svg>