<svg id="Layer_1" data-name="Layer 1" xmlns="http://www.w3.org/2000/svg" viewBox="0 0 122.88 122.88"><defs><style>.cls-1{fill:#fd5;}.cls-2{fill:#262626;fill-rule:evenodd;}</style></defs><title>number-three</title><path class="cls-1" d="M61.44,0A61.46,61.46,0,1,1,18,18,61.21,61.21,0,0,1,61.44,0Zm0,7.78A53.66,53.66,0,1,1,7.78,61.44,53.65,53.65,0,0,1,61.44,7.78Z"/><path class="cls-2" d="M61.44,7.78A53.66,53.66,0,1,1,7.78,61.44,53.65,53.65,0,0,1,61.44,7.78Z"/><path class="cls-1" d="M61.22,83.72a22,22,0,0,1-9-1.75,15,15,0,0,1-6.15-4.81,11.81,11.81,0,0,1-2.25-7.08h11.7a3.59,3.59,0,0,0,.76,2.21,4.8,4.8,0,0,0,2,1.52,7.64,7.64,0,0,0,3,.54,6.78,6.78,0,0,0,2.85-.57,4.74,4.74,0,0,0,1.92-1.6,4.16,4.16,0,0,0,.67-2.34,3.55,3.55,0,0,0-.79-2.3A5.16,5.16,0,0,0,63.71,66a8.75,8.75,0,0,0-3.32-.57H56.05v-8h4.34a7.67,7.67,0,0,0,3.06-.56,5,5,0,0,0,2.07-1.56A3.71,3.71,0,0,0,66.24,53a3.85,3.85,0,0,0-.6-2.21,4.38,4.38,0,0,0-1.75-1.51,5.86,5.86,0,0,0-2.58-.53,6.87,6.87,0,0,0-2.83.55,4.87,4.87,0,0,0-1.95,1.57,4.09,4.09,0,0,0-.74,2.3H44.68a11.74,11.74,0,0,1,2.16-6.94,14.44,14.44,0,0,1,5.88-4.72,20.45,20.45,0,0,1,8.59-1.71,20.52,20.52,0,0,1,8.39,1.61,13.73,13.73,0,0,1,5.7,4.41,10.5,10.5,0,0,1,2,6.44A7.48,7.48,0,0,1,75,58.09a10.67,10.67,0,0,1-6.31,2.72v.34c3.45.37,6,1.43,7.79,3.16A8.69,8.69,0,0,1,79,70.84a10.48,10.48,0,0,1-2.24,6.67,15.05,15.05,0,0,1-6.3,4.55,24.07,24.07,0,0,1-9.27,1.66Z"/></svg>