<svg id="Layer_1" data-name="Layer 1" xmlns="http://www.w3.org/2000/svg" viewBox="0 0 122.88 122.88"><defs><style>.cls-1{fill:#fd5;}.cls-2{fill:#262626;fill-rule:evenodd;}</style></defs><title>number-two</title><path class="cls-1" d="M61.44,0A61.46,61.46,0,1,1,18,18,61.21,61.21,0,0,1,61.44,0Zm0,7.78A53.66,53.66,0,1,1,7.78,61.44,53.65,53.65,0,0,1,61.44,7.78Z"/><path class="cls-2" d="M61.44,7.78A53.66,53.66,0,1,1,7.78,61.44,53.65,53.65,0,0,1,61.44,7.78Z"/><path class="cls-1" d="M45.43,83.13V74.77l16-13.21a35.26,35.26,0,0,0,2.73-2.47,9.85,9.85,0,0,0,1.75-2.39A6.09,6.09,0,0,0,66.5,54a5.32,5.32,0,0,0-.71-2.82,4.56,4.56,0,0,0-1.93-1.81,6.65,6.65,0,0,0-5.67,0,4.36,4.36,0,0,0-1.89,1.91,6.31,6.31,0,0,0-.67,3h-11a14.45,14.45,0,0,1,2-7.78,13.16,13.16,0,0,1,5.73-5A19.85,19.85,0,0,1,61,39.75a22.08,22.08,0,0,1,8.91,1.64A13.35,13.35,0,0,1,75.76,46a11.88,11.88,0,0,1,2.06,7,12.64,12.64,0,0,1-1,4.91,20.74,20.74,0,0,1-3.68,5.38,77.34,77.34,0,0,1-7.54,7l-4,3.35v.25H78.28v9.28Z"/></svg>